# xmcd
#
# Track frame offsets:
# 150
# 27148
# 57248
# 76977
# 95046
# 115161
# 133399
# 155488
# 179837
# 212585
# 230557
# 257235
# 294970
#
# Disc length: 4180 seconds
#
#
# Revision: 0
# Processed by: cddbd v1.5.2PL0 Copyright (c) Steve Scherf et al.
# Submitted via: FreeRIP 2.30 
#
DISCID=bd10520d
DTITLE=Praise Gathering - Praise Gathering 07
DYEAR=2007
DGENRE=Gospel
TTITLE0=Praise is Rising (Hosanna)
TTITLE1=I Will Bless Thee as Long as I Live/I Am Standing
TTITLE2=Give Thanks To The Lord
TTITLE3=For God So Loved The World
TTITLE4=Hear The Call Of The Kingdom
TTITLE5=You Have Pardoned My Transgressions
TTITLE6=Hear Us Now O Loving God
TTITLE7=Blessing and Honour
TTITLE8=I Will Lift Up Mine Eyes
TTITLE9=Blessed Be Your Name
TTITLE10=Turn Your Eyes Upon Jesus/Softly and Tenderly
TTITLE11=Hide Me Now
TTITLE12=Oh Happy Day
EXTD=
EXTT0=
EXTT1=
EXTT2=
EXTT3=
EXTT4=
EXTT5=
EXTT6=
EXTT7=
EXTT8=
EXTT9=
EXTT10=
EXTT11=
EXTT12=
PLAYORDER=
